<svg width="1440" height="5120" viewBox="0 0 1440 5120" fill="none" xmlns="http://www.w3.org/2000/svg">
<g clip-path="url(#clip0_230_262)">
<path d="M127.113 70L130 72.8868L132.887 70L130 67.1132L127.113 70ZM1312.89 70L1310 67.1132L1307.11 70L1310 72.8868L1312.89 70ZM130 70.5H1310V69.5H130V70.5Z" fill="#E0E0E0"/>
<path d="M127.113 140L130 142.887L132.887 140L130 137.113L127.113 140ZM1312.89 140L1310 137.113L1307.11 140L1310 142.887L1312.89 140ZM130 140.5H1310V139.5H130V140.5Z" fill="#E0E0E0"/>
<path d="M127.113 276L130 278.887L132.887 276L130 273.113L127.113 276ZM1312.89 276L1310 273.113L1307.11 276L1310 278.887L1312.89 276ZM130 276.5H1310V275.5H130V276.5Z" fill="#E0E0E0"/>
<path d="M127.113 502L130 504.887L132.887 502L130 499.113L127.113 502ZM1312.89 502L1310 499.113L1307.11 502L1310 504.887L1312.89 502ZM130 502.5H1310V501.5H130V502.5Z" fill="#E0E0E0"/>
<path d="M127.113 296L130 298.887L132.887 296L130 293.113L127.113 296ZM1312.89 296L1310 293.113L1307.11 296L1310 298.887L1312.89 296ZM130 296.5H1310V295.5H130V296.5Z" fill="#E0E0E0"/>
<path d="M1440 728L5.14984e-05 728" stroke="#E0E0E0"/>
<path d="M129 502L0 502" stroke="#E0E0E0"/>
<path d="M1439 502L1310 502" stroke="#E0E0E0"/>
<path d="M129 276L0 276" stroke="#E0E0E0"/>
<path d="M129 140L0 140" stroke="#E0E0E0"/>
<path d="M1439 276L1310 276" stroke="#E0E0E0"/>
<path d="M129 70L0 70" stroke="#E0E0E0"/>
<path d="M1439 70L1310 70" stroke="#E0E0E0"/>
<path d="M1440 140L1310 140" stroke="#E0E0E0"/>
<path d="M130 748L-4.76837e-07 748" stroke="#E0E0E0"/>
<path d="M129 296L0 296" stroke="#E0E0E0"/>
<path d="M1439 296L1310 296" stroke="#E0E0E0"/>
<path d="M130 954L-4.76837e-07 954" stroke="#E0E0E0"/>
<path d="M612.887 748L610 745.113L607.113 748L610 750.887L612.887 748ZM127.113 748L130 750.887L132.887 748L130 745.113L127.113 748ZM610 747.5L130 747.5V748.5L610 748.5V747.5Z" fill="#E0E0E0"/>
<path d="M1312.89 954L1310 951.113L1307.11 954L1310 956.887L1312.89 954ZM127.113 954L130 956.887L132.887 954L130 951.113L127.113 954ZM1310 953.5L130 953.5L130 954.5L1310 954.5L1310 953.5Z" fill="#E0E0E0"/>
<path d="M1440 954L1310 954" stroke="#E0E0E0"/>
<path d="M130 70.0035V-3.98159e-05" stroke="#E0E0E0"/>
<path d="M130 1324L130 954" stroke="#E0E0E0"/>
<path d="M130 956.887L132.887 954L130 951.113L127.113 954L130 956.887ZM130 67.1132L127.113 70L130 72.8867L132.887 70L130 67.1132ZM130.5 954L130.5 70L129.5 70L129.5 954L130.5 954Z" fill="#E0E0E0"/>
<path d="M230 951.113L227.113 954L230 956.887L232.887 954L230 951.113ZM230.5 1074L230.5 954L229.5 954L229.5 1074L230.5 1074Z" fill="#E0E0E0"/>
<path d="M330 951.113L327.113 954L330 956.887L332.887 954L330 951.113ZM330.5 1074L330.5 954L329.5 954L329.5 1074L330.5 1074Z" fill="#E0E0E0"/>
<path d="M511 951.113L508.113 954L511 956.887L513.887 954L511 951.113ZM511.5 1074L511.5 954L510.5 954L510.5 1074L511.5 1074Z" fill="#E0E0E0"/>
<path d="M530 951.113L527.113 954L530 956.887L532.887 954L530 951.113ZM530.5 1074L530.5 954L529.5 954L529.5 1074L530.5 1074Z" fill="#E0E0E0"/>
<path d="M310 278.892L312.887 276.005L310 273.118L307.113 276.005L310 278.892ZM310 137.118L307.113 140.005L310 142.892L312.887 140.005L310 137.118ZM310.5 276.005V140.005H309.5V276.005H310.5Z" fill="#E0E0E0"/>
<path d="M310 298.887L312.887 296L310 293.113L307.113 296L310 298.887ZM310 273.113L307.113 276L310 278.887L312.887 276L310 273.113ZM310.5 296V276H309.5V296H310.5Z" fill="#E0E0E0"/>
<path d="M410 278.896L412.887 276.01L410 273.123L407.113 276.01L410 278.896ZM410 67.1132L407.113 69.9999L410 72.8867L412.887 69.9999L410 67.1132ZM410.5 276.01V69.9999H409.5V276.01H410.5Z" fill="#E0E0E0"/>
<path d="M410 70.0035V-3.98159e-05" stroke="#E0E0E0"/>
<path d="M310 72.8903L312.887 70.0035L310 67.1168L307.113 70.0035L310 72.8903ZM310.5 70.0035V-3.98159e-05H309.5V70.0035H310.5Z" fill="#E0E0E0"/>
<path d="M310 142.895L312.887 140.008L310 137.122L307.113 140.008L310 142.895ZM310 67.118L307.113 70.0047L310 72.8915L312.887 70.0047L310 67.118ZM310.5 140.008V70.0047H309.5V140.008H310.5Z" fill="#E0E0E0"/>
<path d="M510 142.89L512.887 140.004L510 137.117L507.113 140.004L510 142.89ZM510 67.1132L507.113 70L510 72.8867L512.887 70L510 67.1132ZM510.5 140.004V70H509.5V140.004H510.5Z" fill="#E0E0E0"/>
<path d="M410 298.887L412.887 296L410 293.113L407.113 296L410 298.887ZM410 273.113L407.113 276L410 278.887L412.887 276L410 273.113ZM410.5 296V276H409.5V296H410.5Z" fill="#E0E0E0"/>
<path d="M510 70.0035V-3.98159e-05" stroke="#E0E0E0"/>
<path d="M510 298.887L512.887 296L510 293.113L507.113 296L510 298.887ZM510 273.113L507.113 276L510 278.887L512.887 276L510 273.113ZM510.5 296V276H509.5V296H510.5Z" fill="#E0E0E0"/>
<path d="M610 278.892L612.887 276.005L610 273.118L607.113 276.005L610 278.892ZM610 67.1084L607.113 69.9952L610 72.8819L612.887 69.9952L610 67.1084ZM610.5 276.005V69.9952H609.5V276.005H610.5Z" fill="#E0E0E0"/>
<path d="M610 70.0035V-3.98159e-05" stroke="#E0E0E0"/>
<path d="M610 298.887L612.887 296L610 293.113L607.113 296L610 298.887ZM610 273.113L607.113 276L610 278.887L612.887 276L610 273.113ZM610.5 296V276H609.5V296H610.5Z" fill="#E0E0E0"/>
<path d="M610 750.887L612.887 748L610 745.113L607.113 748L610 750.887ZM610 725.113L607.113 728L610 730.887L612.887 728L610 725.113ZM610.5 748V728H609.5V748H610.5Z" fill="#E0E0E0"/>
<path d="M531 750.887L533.887 748L531 745.113L528.113 748L531 750.887ZM531 725.113L528.113 728L531 730.887L533.887 728L531 725.113ZM531.5 748V728H530.5V748H531.5Z" fill="#E0E0E0"/>
<path d="M610 956.887L612.887 954L610 951.113L607.113 954L610 956.887ZM610 745.113L607.113 748L610 750.887L612.887 748L610 745.113ZM610.5 954V748H609.5V954H610.5Z" fill="#E0E0E0"/>
<path d="M531 956.887L533.887 954L531 951.113L528.113 954L531 956.887ZM531 745.113L528.113 748L531 750.887L533.887 748L531 745.113ZM531.5 954V748H530.5V954H531.5Z" fill="#E0E0E0"/>
<path d="M511 956.887L513.887 954L511 951.113L508.113 954L511 956.887ZM511 725.113L508.113 728L511 730.887L513.887 728L511 725.113ZM511.5 954V728H510.5V954H511.5Z" fill="#E0E0E0"/>
<path d="M331 956.887L333.887 954L331 951.113L328.113 954L331 956.887ZM331 725.113L328.113 728L331 730.887L333.887 728L331 725.113ZM331.5 954V728H330.5V954H331.5Z" fill="#E0E0E0"/>
<path d="M230 956.887L232.887 954L230 951.113L227.113 954L230 956.887ZM230 725.113L227.113 728L230 730.887L232.887 728L230 725.113ZM230.5 954V728H229.5V954H230.5Z" fill="#E0E0E0"/>
<path d="M610 730.887L612.887 728L610 725.113L607.113 728L610 730.887ZM610 500.113L607.113 503L610 505.887L612.887 503L610 500.113ZM610.5 728V503H609.5V728H610.5Z" fill="#E0E0E0"/>
<path d="M710 730.887L712.887 728L710 725.113L707.113 728L710 730.887ZM710 500.113L707.113 503L710 505.887L712.887 503L710 500.113ZM710.5 728V503H709.5V728H710.5Z" fill="#E0E0E0"/>
<path d="M810 730.887L812.887 728L810 725.113L807.113 728L810 730.887ZM810 500.113L807.113 503L810 505.887L812.887 503L810 500.113ZM810.5 728V503H809.5V728H810.5Z" fill="#E0E0E0"/>
<path d="M1010 504.887L1012.89 502L1010 499.113L1007.11 502L1010 504.887ZM1010 293.113L1007.11 296L1010 298.887L1012.89 296L1010 293.113ZM1010.5 502V296H1009.5V502H1010.5Z" fill="#E0E0E0"/>
<path d="M910 504.887L912.887 502L910 499.113L907.113 502L910 504.887ZM910 293.113L907.113 296L910 298.887L912.887 296L910 293.113ZM910.5 502V296H909.5V502H910.5Z" fill="#E0E0E0"/>
<path d="M910 730.887L912.887 728L910 725.113L907.113 728L910 730.887ZM910 519.113L907.113 522L910 524.887L912.887 522L910 519.113ZM910.5 728V522H909.5V728H910.5Z" fill="#E0E0E0"/>
<path d="M1010 730.887L1012.89 728L1010 725.113L1007.11 728L1010 730.887ZM1010 519.113L1007.11 522L1010 524.887L1012.89 522L1010 519.113ZM1010.5 728V522H1009.5V728H1010.5Z" fill="#E0E0E0"/>
<path d="M930 504.887L932.887 502L930 499.113L927.113 502L930 504.887ZM930 293.113L927.113 296L930 298.887L932.887 296L930 293.113ZM930.5 502V296H929.5V502H930.5Z" fill="#E0E0E0"/>
<path d="M511 730.887L513.887 728L511 725.113L508.113 728L511 730.887ZM511 500.113L508.113 503L511 505.887L513.887 503L511 500.113ZM511.5 728L511.5 503H510.5L510.5 728H511.5Z" fill="#E0E0E0"/>
<path d="M630 730.887L632.887 728L630 725.113L627.113 728L630 730.887ZM630 500.113L627.113 503L630 505.887L632.887 503L630 500.113ZM630.5 728V503H629.5V728H630.5Z" fill="#E0E0E0"/>
<path d="M730 730.887L732.887 728L730 725.113L727.113 728L730 730.887ZM730 500.113L727.113 503L730 505.887L732.887 503L730 500.113ZM730.5 728V503H729.5V728H730.5Z" fill="#E0E0E0"/>
<path d="M930 730.887L932.887 728L930 725.113L927.113 728L930 730.887ZM930 519.113L927.113 522L930 524.887L932.887 522L930 519.113ZM930.5 728V522H929.5V728H930.5Z" fill="#E0E0E0"/>
<path d="M531 730.887L533.887 728L531 725.113L528.113 728L531 730.887ZM531 500.113L528.113 503L531 505.887L533.887 503L531 500.113ZM531.5 728V503H530.5V728H531.5Z" fill="#E0E0E0"/>
<path d="M331 730.887L333.887 728L331 725.113L328.113 728L331 730.887ZM331 500.113L328.113 503L331 505.887L333.887 503L331 500.113ZM331.5 728L331.5 503H330.5L330.5 728H331.5Z" fill="#E0E0E0"/>
<path d="M230 730.887L232.887 728L230 725.113L227.113 728L230 730.887ZM230 500.113L227.113 503L230 505.887L232.887 503L230 500.113ZM230.5 728L230.5 503H229.5L229.5 728H230.5Z" fill="#E0E0E0"/>
<path d="M630 70.0035V-3.98159e-05" stroke="#E0E0E0"/>
<path d="M630 298.887L632.887 296L630 293.113L627.113 296L630 298.887ZM630 273.113L627.113 276L630 278.887L632.887 276L630 273.113ZM630.5 296V276H629.5V296H630.5Z" fill="#E0E0E0"/>
<path d="M630 278.887L632.887 276L630 273.113L627.113 276L630 278.887ZM630 67.1133L627.113 70L630 72.8868L632.887 70L630 67.1133ZM630.5 276L630.5 70L629.5 70L629.5 276L630.5 276Z" fill="#E0E0E0"/>
<path d="M630 70.0035V-3.98159e-05" stroke="#E0E0E0"/>
<path d="M630 298.887L632.887 296L630 293.113L627.113 296L630 298.887ZM630 273.113L627.113 276L630 278.887L632.887 276L630 273.113ZM630.5 296V276H629.5V296H630.5Z" fill="#E0E0E0"/>
<path d="M630 278.887L632.887 276L630 273.113L627.113 276L630 278.887ZM630 67.1133L627.113 70L630 72.8868L632.887 70L630 67.1133ZM630.5 276L630.5 70L629.5 70L629.5 276L630.5 276Z" fill="#E0E0E0"/>
<path d="M810 278.892L812.887 276.005L810 273.118L807.113 276.005L810 278.892ZM810 137.613L807.113 140.5L810 143.387L812.887 140.5L810 137.613ZM810.5 276.005V140.5H809.5V276.005H810.5Z" fill="#E0E0E0"/>
<path d="M710 278.892L712.887 276.005L710 273.118L707.113 276.005L710 278.892ZM710 137.613L707.113 140.5L710 143.387L712.887 140.5L710 137.613ZM710.5 276.005V140.5H709.5V276.005H710.5Z" fill="#E0E0E0"/>
<path d="M610 278.892L612.887 276.005L610 273.118L607.113 276.005L610 278.892ZM610 137.613L607.113 140.5L610 143.387L612.887 140.5L610 137.613ZM610.5 276.005V140.5H609.5V276.005H610.5Z" fill="#E0E0E0"/>
<path d="M510 278.892L512.887 276.005L510 273.118L507.113 276.005L510 278.892ZM510 137.613L507.113 140.5L510 143.387L512.887 140.5L510 137.613ZM510.5 276.005V140.5H509.5V276.005H510.5Z" fill="#E0E0E0"/>
<path d="M410 278.892L412.887 276.005L410 273.118L407.113 276.005L410 278.892ZM410 137.613L407.113 140.5L410 143.387L412.887 140.5L410 137.613ZM410.5 276.005V140.5H409.5V276.005H410.5Z" fill="#E0E0E0"/>
<path d="M710 298.887L712.887 296L710 293.113L707.113 296L710 298.887ZM710 273.113L707.113 276L710 278.887L712.887 276L710 273.113ZM710.5 296V276H709.5V296H710.5Z" fill="#E0E0E0"/>
<path d="M810 298.887L812.887 296L810 293.113L807.113 296L810 298.887ZM810 273.113L807.113 276L810 278.887L812.887 276L810 273.113ZM810.5 296V276H809.5V296H810.5Z" fill="#E0E0E0"/>
<path d="M910 298.887L912.887 296L910 293.113L907.113 296L910 298.887ZM910 273.113L907.113 276L910 278.887L912.887 276L910 273.113ZM910.5 296V276H909.5V296H910.5Z" fill="#E0E0E0"/>
<path d="M1010 298.887L1012.89 296L1010 293.113L1007.11 296L1010 298.887ZM1010 273.113L1007.11 276L1010 278.887L1012.89 276L1010 273.113ZM1010.5 296V276H1009.5V296H1010.5Z" fill="#E0E0E0"/>
<path d="M910 504.887L912.887 502L910 499.113L907.113 502L910 504.887ZM910 293.113L907.113 296L910 298.887L912.887 296L910 293.113ZM910.5 502L910.5 296L909.5 296L909.5 502L910.5 502Z" fill="#E0E0E0"/>
<path d="M730 298.887L732.887 296L730 293.113L727.113 296L730 298.887ZM730 273.113L727.113 276L730 278.887L732.887 276L730 273.113ZM730.5 296V276H729.5V296H730.5Z" fill="#E0E0E0"/>
<path d="M830 298.887L832.887 296L830 293.113L827.113 296L830 298.887ZM830 273.113L827.113 276L830 278.887L832.887 276L830 273.113ZM830.5 296V276H829.5V296H830.5Z" fill="#E0E0E0"/>
<path d="M930 298.887L932.887 296L930 293.113L927.113 296L930 298.887ZM930 273.113L927.113 276L930 278.887L932.887 276L930 273.113ZM930.5 296V276H929.5V296H930.5Z" fill="#E0E0E0"/>
<path d="M830 504.887L832.887 502L830 499.113L827.113 502L830 504.887ZM830 293.113L827.113 296L830 298.887L832.887 296L830 293.113ZM830.5 502L830.5 296L829.5 296L829.5 502L830.5 502Z" fill="#E0E0E0"/>
<path d="M930 504.887L932.887 502L930 499.113L927.113 502L930 504.887ZM930 293.113L927.113 296L930 298.887L932.887 296L930 293.113ZM930.5 502L930.5 296L929.5 296L929.5 502L930.5 502Z" fill="#E0E0E0"/>
<path d="M830 278.887L832.887 276L830 273.113L827.113 276L830 278.887ZM830 137.113L827.113 140L830 142.887L832.887 140L830 137.113ZM830.5 276L830.5 140L829.5 140L829.5 276L830.5 276Z" fill="#E0E0E0"/>
<path d="M730 278.887L732.887 276L730 273.113L727.113 276L730 278.887ZM730 137.113L727.113 140L730 142.887L732.887 140L730 137.113ZM730.5 276L730.5 140L729.5 140L729.5 276L730.5 276Z" fill="#E0E0E0"/>
<path d="M630 278.887L632.887 276L630 273.113L627.113 276L630 278.887ZM630 137.113L627.113 140L630 142.887L632.887 140L630 137.113ZM630.5 276L630.5 140L629.5 140L629.5 276L630.5 276Z" fill="#E0E0E0"/>
<path d="M1310 278.896L1312.89 276.01L1310 273.123L1307.11 276.01L1310 278.896ZM1310 67.1132L1307.11 69.9999L1310 72.8867L1312.89 69.9999L1310 67.1132ZM1310.5 276.01V69.9999H1309.5V276.01H1310.5Z" fill="#E0E0E0"/>
<path d="M1311 70.0035V-3.98159e-05" stroke="#E0E0E0"/>
<path d="M1310 298.887L1312.89 296L1310 293.113L1307.11 296L1310 298.887ZM1310 273.113L1307.11 276L1310 278.887L1312.89 276L1310 273.113ZM1310.5 296V276H1309.5V296H1310.5Z" fill="#E0E0E0"/>
<path d="M1310 504.887L1312.89 502L1310 499.113L1307.11 502L1310 504.887ZM1310 293.113L1307.11 296L1310 298.887L1312.89 296L1310 293.113ZM1310.5 502L1310.5 296L1309.5 296L1309.5 502L1310.5 502Z" fill="#E0E0E0"/>
<path d="M1310 956.887L1312.89 954L1310 951.113L1307.11 954L1310 956.887ZM1310 725.113L1307.11 728L1310 730.887L1312.89 728L1310 725.113ZM1310.5 954L1310.5 728L1309.5 728L1309.5 954L1310.5 954Z" fill="#E0E0E0"/>
<path d="M1310 951.113L1307.11 954L1310 956.887L1312.89 954L1310 951.113ZM1310.5 1324L1310.5 954L1309.5 954L1309.5 1324L1310.5 1324Z" fill="#E0E0E0"/>
<path d="M610 1073.89L612.887 1071L610 1068.11L607.113 1071L610 1073.89ZM610 951.113L607.113 954L610 956.887L612.887 954L610 951.113ZM610.5 1071L610.5 954L609.5 954L609.5 1071L610.5 1071Z" fill="#E0E0E0"/>
<path d="M127.113 70L130 72.8868L132.887 70L130 67.1132L127.113 70ZM1312.89 70L1310 67.1132L1307.11 70L1310 72.8868L1312.89 70ZM130 70.5H1310V69.5H130V70.5Z" fill="#E0E0E0"/>
<path d="M127.113 140L130 142.887L132.887 140L130 137.113L127.113 140ZM1312.89 140L1310 137.113L1307.11 140L1310 142.887L1312.89 140ZM130 140.5H1310V139.5H130V140.5Z" fill="#E0E0E0"/>
<path d="M127.113 276L130 278.887L132.887 276L130 273.113L127.113 276ZM1312.89 276L1310 273.113L1307.11 276L1310 278.887L1312.89 276ZM130 276.5H1310V275.5H130V276.5Z" fill="#E0E0E0"/>
<path d="M127.113 502L130 504.887L132.887 502L130 499.113L127.113 502ZM1312.89 502L1310 499.113L1307.11 502L1310 504.887L1312.89 502ZM130 502.5H1310V501.5H130V502.5Z" fill="#E0E0E0"/>
<path d="M127.113 296L130 298.887L132.887 296L130 293.113L127.113 296ZM1312.89 296L1310 293.113L1307.11 296L1310 298.887L1312.89 296ZM130 296.5H1310V295.5H130V296.5Z" fill="#E0E0E0"/>
<path d="M1440 728L5.14984e-05 728" stroke="#E0E0E0"/>
<path d="M129 502L0 502" stroke="#E0E0E0"/>
<path d="M1439 502L1310 502" stroke="#E0E0E0"/>
<path d="M129 276L0 276" stroke="#E0E0E0"/>
<path d="M129 140L0 140" stroke="#E0E0E0"/>
<path d="M1439 276L1310 276" stroke="#E0E0E0"/>
<path d="M129 70L0 70" stroke="#E0E0E0"/>
<path d="M1439 70L1310 70" stroke="#E0E0E0"/>
<path d="M1440 140L1310 140" stroke="#E0E0E0"/>
<path d="M130 748L-4.76837e-07 748" stroke="#E0E0E0"/>
<path d="M129 296L0 296" stroke="#E0E0E0"/>
<path d="M1439 296L1310 296" stroke="#E0E0E0"/>
<path d="M130 954L-4.76837e-07 954" stroke="#E0E0E0"/>
<path d="M612.887 748L610 745.113L607.113 748L610 750.887L612.887 748ZM127.113 748L130 750.887L132.887 748L130 745.113L127.113 748ZM610 747.5L130 747.5V748.5L610 748.5V747.5Z" fill="#E0E0E0"/>
<path d="M1312.89 954L1310 951.113L1307.11 954L1310 956.887L1312.89 954ZM127.113 954L130 956.887L132.887 954L130 951.113L127.113 954ZM1310 953.5L130 953.5L130 954.5L1310 954.5L1310 953.5Z" fill="#E0E0E0"/>
<path d="M1440 954L1310 954" stroke="#E0E0E0"/>
<path d="M130 70.0035V-3.98159e-05" stroke="#E0E0E0"/>
<path d="M130 1324L130 954" stroke="#E0E0E0"/>
<path d="M130 956.887L132.887 954L130 951.113L127.113 954L130 956.887ZM130 67.1132L127.113 70L130 72.8867L132.887 70L130 67.1132ZM130.5 954L130.5 70L129.5 70L129.5 954L130.5 954Z" fill="#E0E0E0"/>
<path d="M230 951.113L227.113 954L230 956.887L232.887 954L230 951.113ZM230.5 1074L230.5 954L229.5 954L229.5 1074L230.5 1074Z" fill="#E0E0E0"/>
<path d="M330 951.113L327.113 954L330 956.887L332.887 954L330 951.113ZM330.5 1074L330.5 954L329.5 954L329.5 1074L330.5 1074Z" fill="#E0E0E0"/>
<path d="M511 951.113L508.113 954L511 956.887L513.887 954L511 951.113ZM511.5 1074L511.5 954L510.5 954L510.5 1074L511.5 1074Z" fill="#E0E0E0"/>
<path d="M530 951.113L527.113 954L530 956.887L532.887 954L530 951.113ZM530.5 1074L530.5 954L529.5 954L529.5 1074L530.5 1074Z" fill="#E0E0E0"/>
<path d="M310 278.892L312.887 276.005L310 273.118L307.113 276.005L310 278.892ZM310 137.118L307.113 140.005L310 142.892L312.887 140.005L310 137.118ZM310.5 276.005V140.005H309.5V276.005H310.5Z" fill="#E0E0E0"/>
<path d="M310 298.887L312.887 296L310 293.113L307.113 296L310 298.887ZM310 273.113L307.113 276L310 278.887L312.887 276L310 273.113ZM310.5 296V276H309.5V296H310.5Z" fill="#E0E0E0"/>
<path d="M410 278.896L412.887 276.01L410 273.123L407.113 276.01L410 278.896ZM410 67.1132L407.113 69.9999L410 72.8867L412.887 69.9999L410 67.1132ZM410.5 276.01V69.9999H409.5V276.01H410.5Z" fill="#E0E0E0"/>
<path d="M410 70.0035V-3.98159e-05" stroke="#E0E0E0"/>
<path d="M310 72.8903L312.887 70.0035L310 67.1168L307.113 70.0035L310 72.8903ZM310.5 70.0035V-3.98159e-05H309.5V70.0035H310.5Z" fill="#E0E0E0"/>
<path d="M310 142.895L312.887 140.008L310 137.122L307.113 140.008L310 142.895ZM310 67.118L307.113 70.0047L310 72.8915L312.887 70.0047L310 67.118ZM310.5 140.008V70.0047H309.5V140.008H310.5Z" fill="#E0E0E0"/>
<path d="M510 142.89L512.887 140.004L510 137.117L507.113 140.004L510 142.89ZM510 67.1132L507.113 70L510 72.8867L512.887 70L510 67.1132ZM510.5 140.004V70H509.5V140.004H510.5Z" fill="#E0E0E0"/>
<path d="M410 298.887L412.887 296L410 293.113L407.113 296L410 298.887ZM410 273.113L407.113 276L410 278.887L412.887 276L410 273.113ZM410.5 296V276H409.5V296H410.5Z" fill="#E0E0E0"/>
<path d="M510 70.0035V-3.98159e-05" stroke="#E0E0E0"/>
<path d="M510 298.887L512.887 296L510 293.113L507.113 296L510 298.887ZM510 273.113L507.113 276L510 278.887L512.887 276L510 273.113ZM510.5 296V276H509.5V296H510.5Z" fill="#E0E0E0"/>
<path d="M610 278.892L612.887 276.005L610 273.118L607.113 276.005L610 278.892ZM610 67.1084L607.113 69.9952L610 72.8819L612.887 69.9952L610 67.1084ZM610.5 276.005V69.9952H609.5V276.005H610.5Z" fill="#E0E0E0"/>
<path d="M610 70.0035V-3.98159e-05" stroke="#E0E0E0"/>
<path d="M610 298.887L612.887 296L610 293.113L607.113 296L610 298.887ZM610 273.113L607.113 276L610 278.887L612.887 276L610 273.113ZM610.5 296V276H609.5V296H610.5Z" fill="#E0E0E0"/>
<path d="M610 750.887L612.887 748L610 745.113L607.113 748L610 750.887ZM610 725.113L607.113 728L610 730.887L612.887 728L610 725.113ZM610.5 748V728H609.5V748H610.5Z" fill="#E0E0E0"/>
<path d="M531 750.887L533.887 748L531 745.113L528.113 748L531 750.887ZM531 725.113L528.113 728L531 730.887L533.887 728L531 725.113ZM531.5 748V728H530.5V748H531.5Z" fill="#E0E0E0"/>
<path d="M610 956.887L612.887 954L610 951.113L607.113 954L610 956.887ZM610 745.113L607.113 748L610 750.887L612.887 748L610 745.113ZM610.5 954V748H609.5V954H610.5Z" fill="#E0E0E0"/>
<path d="M531 956.887L533.887 954L531 951.113L528.113 954L531 956.887ZM531 745.113L528.113 748L531 750.887L533.887 748L531 745.113ZM531.5 954V748H530.5V954H531.5Z" fill="#E0E0E0"/>
<path d="M511 956.887L513.887 954L511 951.113L508.113 954L511 956.887ZM511 725.113L508.113 728L511 730.887L513.887 728L511 725.113ZM511.5 954V728H510.5V954H511.5Z" fill="#E0E0E0"/>
<path d="M331 956.887L333.887 954L331 951.113L328.113 954L331 956.887ZM331 725.113L328.113 728L331 730.887L333.887 728L331 725.113ZM331.5 954V728H330.5V954H331.5Z" fill="#E0E0E0"/>
<path d="M230 956.887L232.887 954L230 951.113L227.113 954L230 956.887ZM230 725.113L227.113 728L230 730.887L232.887 728L230 725.113ZM230.5 954V728H229.5V954H230.5Z" fill="#E0E0E0"/>
<path d="M610 730.887L612.887 728L610 725.113L607.113 728L610 730.887ZM610 500.113L607.113 503L610 505.887L612.887 503L610 500.113ZM610.5 728V503H609.5V728H610.5Z" fill="#E0E0E0"/>
<path d="M710 730.887L712.887 728L710 725.113L707.113 728L710 730.887ZM710 500.113L707.113 503L710 505.887L712.887 503L710 500.113ZM710.5 728V503H709.5V728H710.5Z" fill="#E0E0E0"/>
<path d="M810 730.887L812.887 728L810 725.113L807.113 728L810 730.887ZM810 500.113L807.113 503L810 505.887L812.887 503L810 500.113ZM810.5 728V503H809.5V728H810.5Z" fill="#E0E0E0"/>
<path d="M830 730.887L832.887 728L830 725.113L827.113 728L830 730.887ZM830 500.113L827.113 503L830 505.887L832.887 503L830 500.113ZM830.5 728V503H829.5V728H830.5Z" fill="#E0E0E0"/>
<path d="M1010 504.887L1012.89 502L1010 499.113L1007.11 502L1010 504.887ZM1010 293.113L1007.11 296L1010 298.887L1012.89 296L1010 293.113ZM1010.5 502V296H1009.5V502H1010.5Z" fill="#E0E0E0"/>
<path d="M910 504.887L912.887 502L910 499.113L907.113 502L910 504.887ZM910 293.113L907.113 296L910 298.887L912.887 296L910 293.113ZM910.5 502V296H909.5V502H910.5Z" fill="#E0E0E0"/>
<path d="M910 730.887L912.887 728L910 725.113L907.113 728L910 730.887ZM910 499.113L907.113 502L910 504.887L912.887 502L910 499.113ZM910.5 728V502H909.5V728H910.5Z" fill="#E0E0E0"/>
<path d="M1010 730.887L1012.89 728L1010 725.113L1007.11 728L1010 730.887ZM1010 499.113L1007.11 502L1010 504.887L1012.89 502L1010 499.113ZM1010.5 728V502H1009.5V728H1010.5Z" fill="#E0E0E0"/>
<path d="M930 504.887L932.887 502L930 499.113L927.113 502L930 504.887ZM930 293.113L927.113 296L930 298.887L932.887 296L930 293.113ZM930.5 502V296H929.5V502H930.5Z" fill="#E0E0E0"/>
<path d="M511 730.887L513.887 728L511 725.113L508.113 728L511 730.887ZM511 500.113L508.113 503L511 505.887L513.887 503L511 500.113ZM511.5 728L511.5 503H510.5L510.5 728H511.5Z" fill="#E0E0E0"/>
<path d="M630 730.887L632.887 728L630 725.113L627.113 728L630 730.887ZM630 500.113L627.113 503L630 505.887L632.887 503L630 500.113ZM630.5 728V503H629.5V728H630.5Z" fill="#E0E0E0"/>
<path d="M730 730.887L732.887 728L730 725.113L727.113 728L730 730.887ZM730 500.113L727.113 503L730 505.887L732.887 503L730 500.113ZM730.5 728V503H729.5V728H730.5Z" fill="#E0E0E0"/>
<path d="M930 730.887L932.887 728L930 725.113L927.113 728L930 730.887ZM930 499.113L927.113 502L930 504.887L932.887 502L930 499.113ZM930.5 728V502H929.5V728H930.5Z" fill="#E0E0E0"/>
<path d="M531 730.887L533.887 728L531 725.113L528.113 728L531 730.887ZM531 500.113L528.113 503L531 505.887L533.887 503L531 500.113ZM531.5 728V503H530.5V728H531.5Z" fill="#E0E0E0"/>
<path d="M331 730.887L333.887 728L331 725.113L328.113 728L331 730.887ZM331 500.113L328.113 503L331 505.887L333.887 503L331 500.113ZM331.5 728L331.5 503H330.5L330.5 728H331.5Z" fill="#E0E0E0"/>
<path d="M230 730.887L232.887 728L230 725.113L227.113 728L230 730.887ZM230 500.113L227.113 503L230 505.887L232.887 503L230 500.113ZM230.5 728L230.5 503H229.5L229.5 728H230.5Z" fill="#E0E0E0"/>
<path d="M630 70.0035V-3.98159e-05" stroke="#E0E0E0"/>
<path d="M630 298.887L632.887 296L630 293.113L627.113 296L630 298.887ZM630 273.113L627.113 276L630 278.887L632.887 276L630 273.113ZM630.5 296V276H629.5V296H630.5Z" fill="#E0E0E0"/>
<path d="M630 278.887L632.887 276L630 273.113L627.113 276L630 278.887ZM630 67.1133L627.113 70L630 72.8868L632.887 70L630 67.1133ZM630.5 276L630.5 70L629.5 70L629.5 276L630.5 276Z" fill="#E0E0E0"/>
<path d="M630 70.0035V-3.98159e-05" stroke="#E0E0E0"/>
<path d="M630 298.887L632.887 296L630 293.113L627.113 296L630 298.887ZM630 273.113L627.113 276L630 278.887L632.887 276L630 273.113ZM630.5 296V276H629.5V296H630.5Z" fill="#E0E0E0"/>
<path d="M630 278.887L632.887 276L630 273.113L627.113 276L630 278.887ZM630 67.1133L627.113 70L630 72.8868L632.887 70L630 67.1133ZM630.5 276L630.5 70L629.5 70L629.5 276L630.5 276Z" fill="#E0E0E0"/>
<path d="M810 278.892L812.887 276.005L810 273.118L807.113 276.005L810 278.892ZM810 137.613L807.113 140.5L810 143.387L812.887 140.5L810 137.613ZM810.5 276.005V140.5H809.5V276.005H810.5Z" fill="#E0E0E0"/>
<path d="M710 278.892L712.887 276.005L710 273.118L707.113 276.005L710 278.892ZM710 137.613L707.113 140.5L710 143.387L712.887 140.5L710 137.613ZM710.5 276.005V140.5H709.5V276.005H710.5Z" fill="#E0E0E0"/>
<path d="M610 278.892L612.887 276.005L610 273.118L607.113 276.005L610 278.892ZM610 137.613L607.113 140.5L610 143.387L612.887 140.5L610 137.613ZM610.5 276.005V140.5H609.5V276.005H610.5Z" fill="#E0E0E0"/>
<path d="M510 278.892L512.887 276.005L510 273.118L507.113 276.005L510 278.892ZM510 137.613L507.113 140.5L510 143.387L512.887 140.5L510 137.613ZM510.5 276.005V140.5H509.5V276.005H510.5Z" fill="#E0E0E0"/>
<path d="M410 278.892L412.887 276.005L410 273.118L407.113 276.005L410 278.892ZM410 137.613L407.113 140.5L410 143.387L412.887 140.5L410 137.613ZM410.5 276.005V140.5H409.5V276.005H410.5Z" fill="#E0E0E0"/>
<path d="M710 298.887L712.887 296L710 293.113L707.113 296L710 298.887ZM710 273.113L707.113 276L710 278.887L712.887 276L710 273.113ZM710.5 296V276H709.5V296H710.5Z" fill="#E0E0E0"/>
<path d="M810 298.887L812.887 296L810 293.113L807.113 296L810 298.887ZM810 273.113L807.113 276L810 278.887L812.887 276L810 273.113ZM810.5 296V276H809.5V296H810.5Z" fill="#E0E0E0"/>
<path d="M910 298.887L912.887 296L910 293.113L907.113 296L910 298.887ZM910 273.113L907.113 276L910 278.887L912.887 276L910 273.113ZM910.5 296V276H909.5V296H910.5Z" fill="#E0E0E0"/>
<path d="M1010 298.887L1012.89 296L1010 293.113L1007.11 296L1010 298.887ZM1010 273.113L1007.11 276L1010 278.887L1012.89 276L1010 273.113ZM1010.5 296V276H1009.5V296H1010.5Z" fill="#E0E0E0"/>
<path d="M910 504.887L912.887 502L910 499.113L907.113 502L910 504.887ZM910 293.113L907.113 296L910 298.887L912.887 296L910 293.113ZM910.5 502L910.5 296L909.5 296L909.5 502L910.5 502Z" fill="#E0E0E0"/>
<path d="M730 298.887L732.887 296L730 293.113L727.113 296L730 298.887ZM730 273.113L727.113 276L730 278.887L732.887 276L730 273.113ZM730.5 296V276H729.5V296H730.5Z" fill="#E0E0E0"/>
<path d="M830 298.887L832.887 296L830 293.113L827.113 296L830 298.887ZM830 273.113L827.113 276L830 278.887L832.887 276L830 273.113ZM830.5 296V276H829.5V296H830.5Z" fill="#E0E0E0"/>
<path d="M930 298.887L932.887 296L930 293.113L927.113 296L930 298.887ZM930 273.113L927.113 276L930 278.887L932.887 276L930 273.113ZM930.5 296V276H929.5V296H930.5Z" fill="#E0E0E0"/>
<path d="M830 504.887L832.887 502L830 499.113L827.113 502L830 504.887ZM830 293.113L827.113 296L830 298.887L832.887 296L830 293.113ZM830.5 502L830.5 296L829.5 296L829.5 502L830.5 502Z" fill="#E0E0E0"/>
<path d="M930 504.887L932.887 502L930 499.113L927.113 502L930 504.887ZM930 293.113L927.113 296L930 298.887L932.887 296L930 293.113ZM930.5 502L930.5 296L929.5 296L929.5 502L930.5 502Z" fill="#E0E0E0"/>
<path d="M830 278.887L832.887 276L830 273.113L827.113 276L830 278.887ZM830 137.113L827.113 140L830 142.887L832.887 140L830 137.113ZM830.5 276L830.5 140L829.5 140L829.5 276L830.5 276Z" fill="#E0E0E0"/>
<path d="M730 278.887L732.887 276L730 273.113L727.113 276L730 278.887ZM730 137.113L727.113 140L730 142.887L732.887 140L730 137.113ZM730.5 276L730.5 140L729.5 140L729.5 276L730.5 276Z" fill="#E0E0E0"/>
<path d="M630 278.887L632.887 276L630 273.113L627.113 276L630 278.887ZM630 137.113L627.113 140L630 142.887L632.887 140L630 137.113ZM630.5 276L630.5 140L629.5 140L629.5 276L630.5 276Z" fill="#E0E0E0"/>
<path d="M1310 278.896L1312.89 276.01L1310 273.123L1307.11 276.01L1310 278.896ZM1310 67.1132L1307.11 69.9999L1310 72.8867L1312.89 69.9999L1310 67.1132ZM1310.5 276.01V69.9999H1309.5V276.01H1310.5Z" fill="#E0E0E0"/>
<path d="M1311 70.0035V-3.98159e-05" stroke="#E0E0E0"/>
<path d="M1310 298.887L1312.89 296L1310 293.113L1307.11 296L1310 298.887ZM1310 273.113L1307.11 276L1310 278.887L1312.89 276L1310 273.113ZM1310.5 296V276H1309.5V296H1310.5Z" fill="#E0E0E0"/>
<path d="M1310 504.887L1312.89 502L1310 499.113L1307.11 502L1310 504.887ZM1310 293.113L1307.11 296L1310 298.887L1312.89 296L1310 293.113ZM1310.5 502L1310.5 296L1309.5 296L1309.5 502L1310.5 502Z" fill="#E0E0E0"/>
<path d="M1310 730.887L1312.89 728L1310 725.113L1307.11 728L1310 730.887ZM1310 499.113L1307.11 502L1310 504.887L1312.89 502L1310 499.113ZM1310.5 728L1310.5 502L1309.5 502L1309.5 728L1310.5 728Z" fill="#E0E0E0"/>
<path d="M1310 951.113L1307.11 954L1310 956.887L1312.89 954L1310 951.113ZM1310.5 1324L1310.5 954L1309.5 954L1309.5 1324L1310.5 1324Z" fill="#E0E0E0"/>
<path d="M610 1073.89L612.887 1071L610 1068.11L607.113 1071L610 1073.89ZM610 951.113L607.113 954L610 956.887L612.887 954L610 951.113ZM610.5 1071L610.5 954L609.5 954L609.5 1071L610.5 1071Z" fill="#E0E0E0"/>
<path d="M1450 1060L10.0001 1060" stroke="#E0E0E0"/>
<path d="M610 1212.89L612.887 1210L610 1207.11L607.113 1210L610 1212.89ZM610 1148.11L607.113 1151L610 1153.89L612.887 1151L610 1148.11ZM610.5 1210V1151H609.5V1210H610.5Z" fill="#E0E0E0"/>
<path opacity="0.4" d="M692.887 1290L690 1287.11L687.113 1290L690 1292.89L692.887 1290ZM437.113 1290L440 1292.89L442.887 1290L440 1287.11L437.113 1290ZM690 1289.5H440V1290.5H690V1289.5Z" fill="#E0E0E0"/>
<path opacity="0.4" d="M752.887 1290L750 1287.11L747.113 1290L750 1292.89L752.887 1290ZM687.113 1290L690 1292.89L692.887 1290L690 1287.11L687.113 1290ZM750 1289.5H690V1290.5H750V1289.5Z" fill="#E0E0E0"/>
<path opacity="0.4" d="M1002.89 1290L1000 1287.11L997.113 1290L1000 1292.89L1002.89 1290ZM747.113 1290L750 1292.89L752.887 1290L750 1287.11L747.113 1290ZM1000 1289.5L750 1289.5L750 1290.5L1000 1290.5L1000 1289.5Z" fill="#E0E0E0"/>
<path opacity="0.4" d="M997.113 1290L1000 1292.89L1002.89 1290L1000 1287.11L997.113 1290ZM1030 1289.5H1000V1290.5H1030V1289.5Z" fill="#E0E0E0"/>
<path opacity="0.4" d="M410 1290L440 1290" stroke="#E0E0E0"/>
<path d="M692.887 1210L690 1207.11L687.113 1210L690 1212.89L692.887 1210ZM437.113 1210L440 1212.89L442.887 1210L440 1207.11L437.113 1210ZM690 1209.5H440V1210.5H690V1209.5Z" fill="#E0E0E0"/>
<path d="M1002.89 1210L1000 1207.11L997.113 1210L1000 1212.89L1002.89 1210ZM747.113 1210L750 1212.89L752.887 1210L750 1207.11L747.113 1210ZM1000 1209.5H750V1210.5H1000V1209.5Z" fill="#E0E0E0"/>
<path d="M997.113 1210L1000 1212.89L1002.89 1210L1000 1207.11L997.113 1210ZM1030 1209.5H1000V1210.5H1030V1209.5Z" fill="#E0E0E0"/>
<path d="M410 1210L440 1210" stroke="#E0E0E0"/>
<path d="M752.887 1210L750 1207.11L747.113 1210L750 1212.89L752.887 1210ZM687.113 1210L690 1212.89L692.887 1210L690 1207.11L687.113 1210ZM750 1209.5H690V1210.5H750V1209.5Z" fill="#E0E0E0"/>
<path d="M440 1320L440 1180" stroke="#E0E0E0"/>
<path d="M690 1320L690 1180" stroke="#E0E0E0"/>
<path d="M750 1320L750 1180" stroke="#E0E0E0"/>
<path d="M1000 1320L1000 1159" stroke="#E0E0E0"/>
<path d="M382.887 1430L380 1427.11L377.113 1430L380 1432.89L382.887 1430ZM127.113 1430L130 1432.89L132.887 1430L130 1427.11L127.113 1430ZM380 1429.5H130V1430.5H380V1429.5Z" fill="#E0E0E0"/>
<path d="M442.887 1430L440 1427.11L437.113 1430L440 1432.89L442.887 1430ZM377.113 1430L380 1432.89L382.887 1430L380 1427.11L377.113 1430ZM440 1429.5H380V1430.5H440V1429.5Z" fill="#E0E0E0"/>
<path d="M692.887 1430L690 1427.11L687.113 1430L690 1432.89L692.887 1430ZM437.113 1430L440 1432.89L442.887 1430L440 1427.11L437.113 1430ZM690 1429.5L440 1429.5L440 1430.5L690 1430.5L690 1429.5Z" fill="#E0E0E0"/>
<path d="M687.113 1430L690 1432.89L692.887 1430L690 1427.11L687.113 1430ZM720 1429.5H690V1430.5H720V1429.5Z" fill="#E0E0E0"/>
<path d="M100 1430L130 1430" stroke="#E0E0E0"/>
<path d="M382.887 1350L380 1347.11L377.113 1350L380 1352.89L382.887 1350ZM127.113 1350L130 1352.89L132.887 1350L130 1347.11L127.113 1350ZM380 1349.5H130V1350.5H380V1349.5Z" fill="#E0E0E0"/>
<path d="M692.887 1350L690 1347.11L687.113 1350L690 1352.89L692.887 1350ZM437.113 1350L440 1352.89L442.887 1350L440 1347.11L437.113 1350ZM690 1349.5H440V1350.5H690V1349.5Z" fill="#E0E0E0"/>
<path d="M687.113 1350L690 1352.89L692.887 1350L690 1347.11L687.113 1350ZM720 1349.5H690V1350.5H720V1349.5Z" fill="#E0E0E0"/>
<path d="M100 1350L130 1350" stroke="#E0E0E0"/>
<path d="M442.887 1350L440 1347.11L437.113 1350L440 1352.89L442.887 1350ZM377.113 1350L380 1352.89L382.887 1350L380 1347.11L377.113 1350ZM440 1349.5H380V1350.5H440V1349.5Z" fill="#E0E0E0"/>
<path d="M130 1470L130 1320" stroke="#E0E0E0"/>
<path d="M380 1460L380 1320" stroke="#E0E0E0"/>
<path d="M440 1460L440 1320" stroke="#E0E0E0"/>
<path d="M690 1460L690 1320" stroke="#E0E0E0"/>
<path d="M1002.89 1430L1000 1427.11L997.113 1430L1000 1432.89L1002.89 1430ZM747.113 1430L750 1432.89L752.887 1430L750 1427.11L747.113 1430ZM1000 1429.5H750V1430.5H1000V1429.5Z" fill="#E0E0E0"/>
<path d="M1062.89 1430L1060 1427.11L1057.11 1430L1060 1432.89L1062.89 1430ZM997.113 1430L1000 1432.89L1002.89 1430L1000 1427.11L997.113 1430ZM1060 1429.5H1000V1430.5H1060V1429.5Z" fill="#E0E0E0"/>
<path d="M1312.89 1430L1310 1427.11L1307.11 1430L1310 1432.89L1312.89 1430ZM1057.11 1430L1060 1432.89L1062.89 1430L1060 1427.11L1057.11 1430ZM1310 1429.5L1060 1429.5L1060 1430.5L1310 1430.5L1310 1429.5Z" fill="#E0E0E0"/>
<path d="M1307.11 1430L1310 1432.89L1312.89 1430L1310 1427.11L1307.11 1430ZM1340 1429.5H1310V1430.5H1340V1429.5Z" fill="#E0E0E0"/>
<path d="M720 1430L750 1430" stroke="#E0E0E0"/>
<path d="M1002.89 1350L1000 1347.11L997.113 1350L1000 1352.89L1002.89 1350ZM747.113 1350L750 1352.89L752.887 1350L750 1347.11L747.113 1350ZM1000 1349.5H750V1350.5H1000V1349.5Z" fill="#E0E0E0"/>
<path d="M1312.89 1350L1310 1347.11L1307.11 1350L1310 1352.89L1312.89 1350ZM1057.11 1350L1060 1352.89L1062.89 1350L1060 1347.11L1057.11 1350ZM1310 1349.5H1060V1350.5H1310V1349.5Z" fill="#E0E0E0"/>
<path d="M1307.11 1350L1310 1352.89L1312.89 1350L1310 1347.11L1307.11 1350ZM1340 1349.5H1310V1350.5H1340V1349.5Z" fill="#E0E0E0"/>
<path d="M720 1350L750 1350" stroke="#E0E0E0"/>
<path d="M1062.89 1350L1060 1347.11L1057.11 1350L1060 1352.89L1062.89 1350ZM997.113 1350L1000 1352.89L1002.89 1350L1000 1347.11L997.113 1350ZM1060 1349.5H1000V1350.5H1060V1349.5Z" fill="#E0E0E0"/>
<path d="M750 1460L750 1320" stroke="#E0E0E0"/>
<path d="M1000 1460L1000 1315" stroke="#E0E0E0"/>
<path d="M1060 951.113L1057.11 954L1060 956.887L1062.89 954L1060 951.113ZM1060.5 1460L1060.5 1459L1059.5 1459L1059.5 1460L1060.5 1460ZM1060.5 1457.01L1060.5 1455.02L1059.5 1455.02L1059.5 1457.01L1060.5 1457.01ZM1060.5 1453.03L1060.5 1451.04L1059.5 1451.04L1059.5 1453.03L1060.5 1453.03ZM1060.5 1449.04L1060.5 1447.05L1059.5 1447.05L1059.5 1449.04L1060.5 1449.04ZM1060.5 1445.06L1060.5 1443.07L1059.5 1443.07L1059.5 1445.06L1060.5 1445.06ZM1060.5 1441.07L1060.5 1439.08L1059.5 1439.08L1059.5 1441.07L1060.5 1441.07ZM1060.5 1437.09L1060.5 1435.1L1059.5 1435.1L1059.5 1437.09L1060.5 1437.09ZM1060.5 1433.11L1060.5 1431.11L1059.5 1431.11L1059.5 1433.11L1060.5 1433.11ZM1060.5 1429.12L1060.5 1427.13L1059.5 1427.13L1059.5 1429.12L1060.5 1429.12ZM1060.5 1425.14L1060.5 1423.15L1059.5 1423.15L1059.5 1425.14L1060.5 1425.14ZM1060.5 1421.15L1060.5 1419.16L1059.5 1419.16L1059.5 1421.15L1060.5 1421.15ZM1060.5 1417.17L1060.5 1415.18L1059.5 1415.18L1059.5 1417.17L1060.5 1417.17ZM1060.5 1413.19L1060.5 1411.19L1059.5 1411.19L1059.5 1413.19L1060.5 1413.19ZM1060.5 1409.2L1060.5 1407.21L1059.5 1407.21L1059.5 1409.2L1060.5 1409.2ZM1060.5 1405.22L1060.5 1403.22L1059.5 1403.22L1059.5 1405.22L1060.5 1405.22ZM1060.5 1401.23L1060.5 1399.24L1059.5 1399.24L1059.5 1401.23L1060.5 1401.23ZM1060.5 1397.25L1060.5 1395.26L1059.5 1395.26L1059.5 1397.25L1060.5 1397.25ZM1060.5 1393.26L1060.5 1391.27L1059.5 1391.27L1059.5 1393.26L1060.5 1393.26ZM1060.5 1389.28L1060.5 1387.29L1059.5 1387.29L1059.5 1389.28L1060.5 1389.28ZM1060.5 1385.3L1060.5 1383.3L1059.5 1383.3L1059.5 1385.3L1060.5 1385.3ZM1060.5 1381.31L1060.5 1379.32L1059.5 1379.32L1059.5 1381.31L1060.5 1381.31ZM1060.5 1377.33L1060.5 1375.33L1059.5 1375.33L1059.5 1377.33L1060.5 1377.33ZM1060.5 1373.34L1060.5 1371.35L1059.5 1371.35L1059.5 1373.34L1060.5 1373.34ZM1060.5 1369.36L1060.5 1367.37L1059.5 1367.37L1059.5 1369.36L1060.5 1369.36ZM1060.5 1365.37L1060.5 1363.38L1059.5 1363.38L1059.5 1365.37L1060.5 1365.37ZM1060.5 1361.39L1060.5 1359.4L1059.5 1359.4L1059.5 1361.39L1060.5 1361.39ZM1060.5 1357.41L1060.5 1355.41L1059.5 1355.41L1059.5 1357.41L1060.5 1357.41ZM1060.5 1353.42L1060.5 1351.43L1059.5 1351.43L1059.5 1353.42L1060.5 1353.42ZM1060.5 1349.44L1060.5 1347.44L1059.5 1347.44L1059.5 1349.44L1060.5 1349.44ZM1060.5 1345.45L1060.5 1343.46L1059.5 1343.46L1059.5 1345.45L1060.5 1345.45ZM1060.5 1341.47L1060.5 1339.48L1059.5 1339.48L1059.5 1341.47L1060.5 1341.47ZM1060.5 1337.48L1060.5 1335.49L1059.5 1335.49L1059.5 1337.48L1060.5 1337.48ZM1060.5 1333.5L1060.5 1331.51L1059.5 1331.51L1059.5 1333.5L1060.5 1333.5ZM1060.5 1329.52L1060.5 1327.52L1059.5 1327.52L1059.5 1329.52L1060.5 1329.52ZM1060.5 1325.53L1060.5 1323.54L1059.5 1323.54L1059.5 1325.53L1060.5 1325.53ZM1060.5 1321.55L1060.5 1319.56L1059.5 1319.56L1059.5 1321.55L1060.5 1321.55ZM1060.5 1317.56L1060.5 1315.57L1059.5 1315.57L1059.5 1317.56L1060.5 1317.56ZM1060.5 1313.58L1060.5 1311.59L1059.5 1311.59L1059.5 1313.58L1060.5 1313.58ZM1060.5 1309.59L1060.5 1307.6L1059.5 1307.6L1059.5 1309.59L1060.5 1309.59ZM1060.5 1305.61L1060.5 1303.62L1059.5 1303.62L1059.5 1305.61L1060.5 1305.61ZM1060.5 1301.63L1060.5 1299.63L1059.5 1299.63L1059.5 1301.63L1060.5 1301.63ZM1060.5 1297.64L1060.5 1295.65L1059.5 1295.65L1059.5 1297.64L1060.5 1297.64ZM1060.5 1293.66L1060.5 1291.67L1059.5 1291.67L1059.5 1293.66L1060.5 1293.66ZM1060.5 1289.67L1060.5 1287.68L1059.5 1287.68L1059.5 1289.67L1060.5 1289.67ZM1060.5 1285.69L1060.5 1283.7L1059.5 1283.7L1059.5 1285.69L1060.5 1285.69ZM1060.5 1281.7L1060.5 1279.71L1059.5 1279.71L1059.5 1281.7L1060.5 1281.7ZM1060.5 1277.72L1060.5 1275.73L1059.5 1275.73L1059.5 1277.72L1060.5 1277.72ZM1060.5 1273.74L1060.5 1271.74L1059.5 1271.74L1059.5 1273.74L1060.5 1273.74ZM1060.5 1269.75L1060.5 1267.76L1059.5 1267.76L1059.5 1269.75L1060.5 1269.75ZM1060.5 1265.77L1060.5 1263.78L1059.5 1263.78L1059.5 1265.77L1060.5 1265.77ZM1060.5 1261.78L1060.5 1259.79L1059.5 1259.79L1059.5 1261.78L1060.5 1261.78ZM1060.5 1257.8L1060.5 1255.81L1059.5 1255.81L1059.5 1257.8L1060.5 1257.8ZM1060.5 1253.81L1060.5 1251.82L1059.5 1251.82L1059.5 1253.81L1060.5 1253.81ZM1060.5 1249.83L1060.5 1247.84L1059.5 1247.84L1059.5 1249.83L1060.5 1249.83ZM1060.5 1245.85L1060.5 1243.85L1059.5 1243.85L1059.5 1245.85L1060.5 1245.85ZM1060.5 1241.86L1060.5 1239.87L1059.5 1239.87L1059.5 1241.86L1060.5 1241.86ZM1060.5 1237.88L1060.5 1235.89L1059.5 1235.89L1059.5 1237.88L1060.5 1237.88ZM1060.5 1233.89L1060.5 1231.9L1059.5 1231.9L1059.5 1233.89L1060.5 1233.89ZM1060.5 1229.91L1060.5 1227.92L1059.5 1227.92L1059.5 1229.91L1060.5 1229.91ZM1060.5 1225.93L1060.5 1223.93L1059.5 1223.93L1059.5 1225.93L1060.5 1225.93ZM1060.5 1221.94L1060.5 1219.95L1059.5 1219.95L1059.5 1221.94L1060.5 1221.94ZM1060.5 1217.96L1060.5 1215.96L1059.5 1215.96L1059.5 1217.96L1060.5 1217.96ZM1060.5 1213.97L1060.5 1211.98L1059.5 1211.98L1059.5 1213.97L1060.5 1213.97ZM1060.5 1209.99L1060.5 1208L1059.5 1208L1059.5 1209.99L1060.5 1209.99ZM1060.5 1206L1060.5 1204.01L1059.5 1204.01L1059.5 1206L1060.5 1206ZM1060.5 1202.02L1060.5 1200.03L1059.5 1200.03L1059.5 1202.02L1060.5 1202.02ZM1060.5 1198.04L1060.5 1196.04L1059.5 1196.04L1059.5 1198.04L1060.5 1198.04ZM1060.5 1194.05L1060.5 1192.06L1059.5 1192.06L1059.5 1194.05L1060.5 1194.05ZM1060.5 1190.07L1060.5 1188.07L1059.5 1188.07L1059.5 1190.07L1060.5 1190.07ZM1060.5 1186.08L1060.5 1184.09L1059.5 1184.09L1059.5 1186.08L1060.5 1186.08ZM1060.5 1182.1L1060.5 1180.11L1059.5 1180.11L1059.5 1182.1L1060.5 1182.1ZM1060.5 1178.11L1060.5 1176.12L1059.5 1176.12L1059.5 1178.11L1060.5 1178.11ZM1060.5 1174.13L1060.5 1172.14L1059.5 1172.14L1059.5 1174.13L1060.5 1174.13ZM1060.5 1170.15L1060.5 1168.15L1059.5 1168.15L1059.5 1170.15L1060.5 1170.15ZM1060.5 1166.16L1060.5 1164.17L1059.5 1164.17L1059.5 1166.16L1060.5 1166.16ZM1060.5 1162.18L1060.5 1160.19L1059.5 1160.19L1059.5 1162.18L1060.5 1162.18ZM1060.5 1158.19L1060.5 1156.2L1059.5 1156.2L1059.5 1158.19L1060.5 1158.19ZM1060.5 1154.21L1060.5 1152.22L1059.5 1152.22L1059.5 1154.21L1060.5 1154.21ZM1060.5 1150.22L1060.5 1148.23L1059.5 1148.23L1059.5 1150.22L1060.5 1150.22ZM1060.5 1146.24L1060.5 1144.25L1059.5 1144.25L1059.5 1146.24L1060.5 1146.24ZM1060.5 1142.26L1060.5 1140.26L1059.5 1140.26L1059.5 1142.26L1060.5 1142.26ZM1060.5 1138.27L1060.5 1136.28L1059.5 1136.28L1059.5 1138.27L1060.5 1138.27ZM1060.5 1134.29L1060.5 1132.3L1059.5 1132.3L1059.5 1134.29L1060.5 1134.29ZM1060.5 1130.3L1060.5 1128.31L1059.5 1128.31L1059.5 1130.3L1060.5 1130.3ZM1060.5 1126.32L1060.5 1124.33L1059.5 1124.33L1059.5 1126.32L1060.5 1126.32ZM1060.5 1122.33L1060.5 1120.34L1059.5 1120.34L1059.5 1122.33L1060.5 1122.33ZM1060.5 1118.35L1060.5 1116.36L1059.5 1116.36L1059.5 1118.35L1060.5 1118.35ZM1060.5 1114.37L1060.5 1112.37L1059.5 1112.37L1059.5 1114.37L1060.5 1114.37ZM1060.5 1110.38L1060.5 1108.39L1059.5 1108.39L1059.5 1110.38L1060.5 1110.38ZM1060.5 1106.4L1060.5 1104.41L1059.5 1104.41L1059.5 1106.4L1060.5 1106.4ZM1060.5 1102.41L1060.5 1100.42L1059.5 1100.42L1059.5 1102.41L1060.5 1102.41ZM1060.5 1098.43L1060.5 1096.44L1059.5 1096.44L1059.5 1098.43L1060.5 1098.43ZM1060.5 1094.44L1060.5 1092.45L1059.5 1092.45L1059.5 1094.44L1060.5 1094.44ZM1060.5 1090.46L1060.5 1088.47L1059.5 1088.47L1059.5 1090.46L1060.5 1090.46ZM1060.5 1086.48L1060.5 1084.48L1059.5 1084.48L1059.5 1086.48L1060.5 1086.48ZM1060.5 1082.49L1060.5 1080.5L1059.5 1080.5L1059.5 1082.49L1060.5 1082.49ZM1060.5 1078.51L1060.5 1076.52L1059.5 1076.52L1059.5 1078.51L1060.5 1078.51ZM1060.5 1074.52L1060.5 1072.53L1059.5 1072.53L1059.5 1074.52L1060.5 1074.52ZM1060.5 1070.54L1060.5 1068.55L1059.5 1068.55L1059.5 1070.54L1060.5 1070.54ZM1060.5 1066.56L1060.5 1064.56L1059.5 1064.56L1059.5 1066.56L1060.5 1066.56ZM1060.5 1062.57L1060.5 1060.58L1059.5 1060.58L1059.5 1062.57L1060.5 1062.57ZM1060.5 1058.59L1060.5 1056.59L1059.5 1056.59L1059.5 1058.59L1060.5 1058.59ZM1060.5 1054.6L1060.5 1052.61L1059.5 1052.61L1059.5 1054.6L1060.5 1054.6ZM1060.5 1050.62L1060.5 1048.63L1059.5 1048.63L1059.5 1050.62L1060.5 1050.62ZM1060.5 1046.63L1060.5 1044.64L1059.5 1044.64L1059.5 1046.63L1060.5 1046.63ZM1060.5 1042.65L1060.5 1040.66L1059.5 1040.66L1059.5 1042.65L1060.5 1042.65ZM1060.5 1038.67L1060.5 1036.67L1059.5 1036.67L1059.5 1038.67L1060.5 1038.67ZM1060.5 1034.68L1060.5 1032.69L1059.5 1032.69L1059.5 1034.68L1060.5 1034.68ZM1060.5 1030.7L1060.5 1028.7L1059.5 1028.7L1059.5 1030.7L1060.5 1030.7ZM1060.5 1026.71L1060.5 1024.72L1059.5 1024.72L1059.5 1026.71L1060.5 1026.71ZM1060.5 1022.73L1060.5 1020.74L1059.5 1020.74L1059.5 1022.73L1060.5 1022.73ZM1060.5 1018.74L1060.5 1016.75L1059.5 1016.75L1059.5 1018.74L1060.5 1018.74ZM1060.5 1014.76L1060.5 1012.77L1059.5 1012.77L1059.5 1014.76L1060.5 1014.76ZM1060.5 1010.78L1060.5 1008.78L1059.5 1008.78L1059.5 1010.78L1060.5 1010.78ZM1060.5 1006.79L1060.5 1004.8L1059.5 1004.8L1059.5 1006.79L1060.5 1006.79ZM1060.5 1002.81L1060.5 1000.81L1059.5 1000.81L1059.5 1002.81L1060.5 1002.81ZM1060.5 998.823L1060.5 996.831L1059.5 996.831L1059.5 998.823L1060.5 998.823ZM1060.5 994.839L1060.5 992.846L1059.5 992.846L1059.5 994.839L1060.5 994.839ZM1060.5 990.854L1060.5 988.862L1059.5 988.862L1059.5 990.854L1060.5 990.854ZM1060.5 986.87L1060.5 984.878L1059.5 984.878L1059.5 986.87L1060.5 986.87ZM1060.5 982.886L1060.5 980.894L1059.5 980.894L1059.5 982.886L1060.5 982.886ZM1060.5 978.902L1060.5 976.909L1059.5 976.909L1059.5 978.902L1060.5 978.902ZM1060.5 974.917L1060.5 972.925L1059.5 972.925L1059.5 974.917L1060.5 974.917ZM1060.5 970.933L1060.5 968.941L1059.5 968.941L1059.5 970.933L1060.5 970.933ZM1060.5 966.949L1060.5 964.957L1059.5 964.957L1059.5 966.949L1060.5 966.949ZM1060.5 962.964L1060.5 960.972L1059.5 960.972L1059.5 962.964L1060.5 962.964ZM1060.5 958.98L1060.5 956.988L1059.5 956.988L1059.5 958.98L1060.5 958.98ZM1060.5 954.996L1060.5 954L1059.5 954L1059.5 954.996L1060.5 954.996Z" fill="#E0E0E0"/>
<path d="M1310 1470L1310 1324" stroke="#E0E0E0"/>
<path d="M510 3580L510 1540" stroke="#E0E0E0"/>
<path d="M910 3592L910 1540" stroke="#E0E0E0"/>
<path d="M530 3610L530 1540" stroke="#E0E0E0"/>
<path d="M1230 4802.89L1232.89 4800L1230 4797.11L1227.11 4800L1230 4802.89ZM1230 2987.11L1227.11 2990L1230 2992.89L1232.89 2990L1230 2987.11ZM1230.5 4800L1230.5 2990L1229.5 2990L1229.5 4800L1230.5 4800Z" fill="#E0E0E0"/>
<path d="M830 4812.89L832.887 4810L830 4807.11L827.113 4810L830 4812.89ZM830 2870.11L827.113 2873L830 2875.89L832.887 2873L830 2870.11ZM830.5 4810L830.5 2873L829.5 2873L829.5 4810L830.5 4810Z" fill="#E0E0E0"/>
<path d="M610 4802.89L612.887 4800L610 4797.11L607.113 4800L610 4802.89ZM610 2704.11L607.113 2707L610 2709.89L612.887 2707L610 2704.11ZM610.5 4800L610.5 2707L609.5 2707L609.5 4800L610.5 4800Z" fill="#E0E0E0"/>
<path d="M210 4802.89L212.887 4800L210 4797.11L207.113 4800L210 4802.89ZM210 2947.11L207.113 2950L210 2952.89L212.887 2950L210 2947.11ZM210.5 4800L210.5 2950L209.5 2950L209.5 4800L210.5 4800Z" fill="#E0E0E0"/>
<path d="M330 4802.89L332.887 4800L330 4797.11L327.113 4800L330 4802.89ZM330 4085.11L327.113 4088L330 4090.89L332.887 4088L330 4085.11ZM330.5 4800L330.5 4088H329.5L329.5 4800H330.5Z" fill="#E0E0E0"/>
<path d="M127.113 3280L130 3282.89L132.887 3280L130 3277.11L127.113 3280ZM1312.89 3280L1310 3277.11L1307.11 3280L1310 3282.89L1312.89 3280ZM130 3280.5L1310 3280.5L1310 3279.5L130 3279.5L130 3280.5Z" fill="#E0E0E0"/>
<path d="M127.113 3800L130 3802.89L132.887 3800L130 3797.11L127.113 3800ZM1312.89 3800L1310 3797.11L1307.11 3800L1310 3802.89L1312.89 3800ZM130 3800.5L1310 3800.5L1310 3799.5L130 3799.5L130 3800.5Z" fill="#E0E0E0"/>
<path d="M127.113 3720L130 3722.89L132.887 3720L130 3717.11L127.113 3720ZM1312.89 3720L1310 3717.11L1307.11 3720L1310 3722.89L1312.89 3720ZM130 3720.5L1310 3720.5L1310 3719.5L130 3719.5L130 3720.5Z" fill="#E0E0E0"/>
<path d="M127.113 3672L130 3674.89L132.887 3672L130 3669.11L127.113 3672ZM1312.89 3672L1310 3669.11L1307.11 3672L1310 3674.89L1312.89 3672ZM130 3672.5L1310 3672.5L1310 3671.5L130 3671.5L130 3672.5Z" fill="#E0E0E0"/>
<path d="M127.113 3412L130 3414.89L132.887 3412L130 3409.11L127.113 3412ZM1312.89 3412L1310 3409.11L1307.11 3412L1310 3414.89L1312.89 3412ZM130 3412.5L1310 3412.5L1310 3411.5L130 3411.5L130 3412.5Z" fill="#E0E0E0"/>
<path d="M930 3600L930 1540" stroke="#E0E0E0"/>
<path d="M1312.89 1070L1310 1067.11L1307.11 1070L1310 1072.89L1312.89 1070ZM127.113 1070L130 1072.89L132.887 1070L130 1067.11L127.113 1070ZM1310 1069.5L130 1069.5L130 1070.5L1310 1070.5L1310 1069.5Z" fill="#E0E0E0"/>
<path d="M1304.89 1150L1302 1147.11L1299.11 1150L1302 1152.89L1304.89 1150ZM127.113 1150L130 1152.89L132.887 1150L130 1147.11L127.113 1150ZM1302 1149.5L130 1149.5L130 1150.5L1302 1150.5L1302 1149.5Z" fill="#E0E0E0"/>
<path d="M1440 1070L1310 1070" stroke="#E0E0E0"/>
<path d="M1440 1150L1310 1150" stroke="#E0E0E0"/>
<path d="M130 1070L-4.76837e-07 1070" stroke="#E0E0E0"/>
<path d="M130 1150L-4.76837e-07 1150" stroke="#E0E0E0"/>
<path d="M1312.89 2870L1310 2867.11L1307.11 2870L1310 2872.89L1312.89 2870ZM127.113 2870L130 2872.89L132.887 2870L130 2867.11L127.113 2870ZM1310 2869.5L130 2869.5L130 2870.5L1310 2870.5L1310 2869.5Z" fill="#E0E0E0"/>
<path d="M1312.89 2950L1310 2947.11L1307.11 2950L1310 2952.89L1312.89 2950ZM127.113 2950L130 2952.89L132.887 2950L130 2947.11L127.113 2950ZM1310 2949.5L130 2949.5L130 2950.5L1310 2950.5L1310 2949.5Z" fill="#E0E0E0"/>
<path d="M1440 2870L1310 2870" stroke="#E0E0E0"/>
<path d="M1440 2950L1310 2950" stroke="#E0E0E0"/>
<path d="M130 2870L-4.76837e-07 2870" stroke="#E0E0E0"/>
<path d="M130 2950L-4.76837e-07 2950" stroke="#E0E0E0"/>
<path d="M1312.89 3930L1310 3927.11L1307.11 3930L1310 3932.89L1312.89 3930ZM127.113 3930L130 3932.89L132.887 3930L130 3927.11L127.113 3930ZM1310 3929.5L130 3929.5L130 3930.5L1310 3930.5L1310 3929.5Z" fill="#E0E0E0"/>
<path d="M1312.89 4010L1310 4007.11L1307.11 4010L1310 4012.89L1312.89 4010ZM127.113 4010L130 4012.89L132.887 4010L130 4007.11L127.113 4010ZM1310 4009.5L130 4009.5L130 4010.5L1310 4010.5L1310 4009.5Z" fill="#E0E0E0"/>
<path d="M1440 3930L1310 3930" stroke="#E0E0E0"/>
<path d="M1440 4010L1310 4010" stroke="#E0E0E0"/>
<path d="M130 3930L-4.76837e-07 3930" stroke="#E0E0E0"/>
<path d="M130 4010L-4.76837e-07 4010" stroke="#E0E0E0"/>
<path d="M130 3280L-4.76837e-07 3280" stroke="#E0E0E0"/>
<path d="M130 3720L-4.76837e-07 3720" stroke="#E0E0E0"/>
<path d="M130 3800L-4.76837e-07 3800" stroke="#E0E0E0"/>
<path d="M130 3672L-4.76837e-07 3672" stroke="#E0E0E0"/>
<path d="M130 3412L-4.76837e-07 3412" stroke="#E0E0E0"/>
<path d="M1440 3720L1310 3720" stroke="#E0E0E0"/>
<path d="M1440 3672L1310 3672" stroke="#E0E0E0"/>
<path d="M1440 3412L1310 3412" stroke="#E0E0E0"/>
<path d="M1440 3800L1310 3800" stroke="#E0E0E0"/>
<path d="M127.113 4140L130 4142.89L132.887 4140L130 4137.11L127.113 4140ZM1312.89 4140L1310 4137.11L1307.11 4140L1310 4142.89L1312.89 4140ZM130 4140.5L1310 4140.5L1310 4139.5L130 4139.5L130 4140.5Z" fill="#E0E0E0"/>
<path d="M130 4140L-4.76837e-07 4140" stroke="#E0E0E0"/>
<path d="M1440 4140L1310 4140" stroke="#E0E0E0"/>
<path d="M127.113 4300L130 4302.89L132.887 4300L130 4297.11L127.113 4300ZM1312.89 4300L1310 4297.11L1307.11 4300L1310 4302.89L1312.89 4300ZM130 4300.5L1310 4300.5L1310 4299.5L130 4299.5L130 4300.5Z" fill="#E0E0E0"/>
<path d="M130 4300L-4.76837e-07 4300" stroke="#E0E0E0"/>
<path d="M1440 4300L1310 4300" stroke="#E0E0E0"/>
<path d="M127.113 4550L130 4552.89L132.887 4550L130 4547.11L127.113 4550ZM1312.89 4550L1310 4547.11L1307.11 4550L1310 4552.89L1312.89 4550ZM130 4550.5L1310 4550.5L1310 4549.5L130 4549.5L130 4550.5Z" fill="#E0E0E0"/>
<path d="M130 4550L-4.76837e-07 4550" stroke="#E0E0E0"/>
<path d="M1440 4550L1310 4550" stroke="#E0E0E0"/>
<path d="M1312.89 1870L1310 1867.11L1307.11 1870L1310 1872.89L1312.89 1870ZM127.113 1870L130 1872.89L132.887 1870L130 1867.11L127.113 1870ZM1310 1869.5L130 1869.5L130 1870.5L1310 1870.5L1310 1869.5Z" fill="#E0E0E0"/>
<path d="M1304.89 1950L1302 1947.11L1299.11 1950L1302 1952.89L1304.89 1950ZM127.113 1950L130 1952.89L132.887 1950L130 1947.11L127.113 1950ZM1302 1949.5L130 1949.5L130 1950.5L1302 1950.5L1302 1949.5Z" fill="#E0E0E0"/>
<path d="M1440 1870L1310 1870" stroke="#E0E0E0"/>
<path d="M1440 1950L1310 1950" stroke="#E0E0E0"/>
<path d="M130 1870L-4.76837e-07 1870" stroke="#E0E0E0"/>
<path d="M130 1950L-4.76837e-07 1950" stroke="#E0E0E0"/>
<path d="M610 1950V1870" stroke="#E0E0E0"/>
<path d="M1440 2080H5.14984e-05" stroke="#E0E0E0"/>
<path d="M1440 2390H5.14984e-05" stroke="#E0E0E0"/>
<path d="M1440 2430H5.14984e-05" stroke="#E0E0E0"/>
<path d="M1440 2740H5.14984e-05" stroke="#E0E0E0"/>
<path d="M1312.89 1650L1310 1647.11L1307.11 1650L1310 1652.89L1312.89 1650ZM127.113 1650L130 1652.89L132.887 1650L130 1647.11L127.113 1650ZM1310 1649.5L130 1649.5L130 1650.5L1310 1650.5L1310 1649.5Z" fill="#E0E0E0"/>
<path d="M1312.89 1730L1310 1732.89L1307.11 1730L1310 1727.11L1312.89 1730ZM127.113 1730L130 1727.11L132.887 1730L130 1732.89L127.113 1730ZM1310 1730.5L130 1730.5L130 1729.5L1310 1729.5L1310 1730.5Z" fill="#E0E0E0"/>
<path d="M1440 1650L1310 1650" stroke="#E0E0E0"/>
<path d="M1440 1730L1310 1730" stroke="#E0E0E0"/>
<path d="M130 1650L-4.76837e-07 1650" stroke="#E0E0E0"/>
<path d="M130 1730L-4.76837e-07 1730" stroke="#E0E0E0"/>
<line x1="1092.5" y1="3662" x2="1092.5" y2="3730" stroke="#E0E0E0"/>
<path d="M754.113 4102L757 4104.89L759.887 4102L757 4099.11L754.113 4102ZM767 4101.5H757V4102.5H767V4101.5Z" fill="#E0E0E0"/>
<path d="M754.113 4150L757 4152.89L759.887 4150L757 4147.11L754.113 4150ZM767 4149.5H757V4150.5H767V4149.5Z" fill="#E0E0E0"/>
<path d="M130 4802.89L132.887 4800L130 4797.11L127.113 4800L130 4802.89ZM130.5 4800L130.5 1540L129.5 1540L129.5 4800L130.5 4800Z" fill="#E0E0E0"/>
<g clip-path="url(#clip1_230_262)">
<rect width="1440" height="320" transform="translate(0 4800)" fill="#2A2A2A"/>
<rect width="130" height="60" transform="translate(1310 4800)" fill="#010101"/>
<path d="M330 4797.11L327.113 4800L330 4802.89L332.887 4800L330 4797.11ZM330.5 5120L330.5 4800L329.5 4800L329.5 5120L330.5 5120Z" fill="#FDFDFD"/>
<path d="M310 4797.11L307.113 4800L310 4802.89L312.887 4800L310 4797.11ZM310.5 4950L310.5 4800L309.5 4800L309.5 4950L310.5 4950Z" fill="#FDFDFD"/>
<path d="M610 4797.11L607.113 4800L610 4802.89L612.887 4800L610 4797.11ZM610.5 5120L610.5 4800L609.5 4800L609.5 5120L610.5 5120Z" fill="#FDFDFD"/>
<path d="M810 4797.11L807.113 4800L810 4802.89L812.887 4800L810 4797.11ZM810.5 5120L810.5 4800L809.5 4800L809.5 5120L810.5 5120Z" fill="#FDFDFD"/>
<path d="M1230 4797.11L1227.11 4800L1230 4802.89L1232.89 4800L1230 4797.11ZM1230.5 5120L1230.5 4800L1229.5 4800L1229.5 5120L1230.5 5120Z" fill="#FDFDFD"/>
<path d="M1310 4797.11L1307.11 4800L1310 4802.89L1312.89 4800L1310 4797.11ZM1310.5 5120L1310.5 4800L1309.5 4800L1309.5 5120L1310.5 5120Z" fill="#FDFDFD"/>
<path d="M127.113 5070L130 5072.89L132.887 5070L130 5067.11L127.113 5070ZM1312.89 5070L1310 5067.11L1307.11 5070L1310 5072.89L1312.89 5070ZM130 5070.5L1310 5070.5L1310 5069.5L130 5069.5L130 5070.5Z" fill="#FDFDFD"/>
<path d="M130 5070L-4.76837e-07 5070" stroke="#FDFDFD"/>
<path d="M1440 5070L1310 5070" stroke="#FDFDFD"/>
<rect width="80" height="210" transform="translate(130 4860)" fill="#B2A222"/>
<rect width="20" height="50" transform="translate(810 5070)" fill="#FDFDFD"/>
<path d="M210 4797.11L207.113 4800L210 4802.89L212.887 4800L210 4797.11ZM210.5 5120L210.5 4800L209.5 4800L209.5 5120L210.5 5120Z" fill="#FDFDFD"/>
<path d="M130 4797.11L127.113 4800L130 4802.89L132.887 4800L130 4797.11ZM130.5 5120L130.5 4800L129.5 4800L129.5 5120L130.5 5120Z" fill="#FDFDFD"/>
<rect width="381" height="90" transform="translate(830 4860)" fill="#4C6999"/>
<path d="M830 4797.11L827.113 4800L830 4802.89L832.887 4800L830 4797.11ZM830.5 5120L830.5 4800L829.5 4800L829.5 5120L830.5 5120Z" fill="#FDFDFD"/>
<path d="M127.113 4860L130 4862.89L132.887 4860L130 4857.11L127.113 4860ZM1312.89 4860L1310 4857.11L1307.11 4860L1310 4862.89L1312.89 4860ZM130 4860.5L1310 4860.5L1310 4859.5L130 4859.5L130 4860.5Z" fill="#FDFDFD"/>
<path d="M130 4860L-4.76837e-07 4860" stroke="#FDFDFD"/>
<path d="M1440 4860L1310 4860" stroke="#FDFDFD"/>
<path d="M207.113 4950L210 4952.89L212.887 4950L210 4947.11L207.113 4950ZM1213.89 4950L1211 4947.11L1208.11 4950L1211 4952.89L1213.89 4950ZM210 4950.5L1211 4950.5L1211 4949.5L210 4949.5L210 4950.5Z" fill="#FDFDFD"/>
<path d="M1211 4797.11L1208.11 4800L1211 4802.89L1213.89 4800L1211 4797.11ZM1211.5 5120L1211.5 4800L1210.5 4800L1210.5 5120L1211.5 5120Z" fill="#FDFDFD"/>
<circle cx="585" cy="4975" r="15" fill="#E0E0E0"/>
</g>
</g>
<defs>
<clipPath id="clip0_230_262">
<rect width="1440" height="5120" fill="white"/>
</clipPath>
<clipPath id="clip1_230_262">
<rect width="1440" height="320" fill="white" transform="translate(0 4800)"/>
</clipPath>
</defs>
</svg>
